<svg width="60" height="60" viewBox="0 0 60 60" fill="none" xmlns="http://www.w3.org/2000/svg">
<g clip-path="url(#clip0_1_62)">
<path d="M30.0001 58.7594C45.8845 58.7594 58.7614 45.8834 58.7614 30C58.7614 14.1166 45.8845 1.24054 30.0001 1.24054C14.1156 1.24054 1.23877 14.1166 1.23877 30C1.23877 45.8834 14.1156 58.7594 30.0001 58.7594Z" fill="white" fill-opacity="0.1"/>
<path d="M16.9509 18.5659L42.8516 18.5427C44.5509 18.6994 45.8825 20.0329 46.0374 21.7283V38.2717C45.8806 39.971 44.547 41.3025 42.8516 41.4573H17.1445C15.4683 41.3025 14.1561 40.0058 13.9625 38.3395V21.6605C14.1483 20.0619 15.3619 18.7981 16.9528 18.5659H16.9509ZM41.8838 20.8361H18.1141L29.5277 30.3638C29.818 30.4722 30.2341 30.4683 30.5187 30.3406L41.8838 20.8361ZM43.7438 22.3398L32.3225 31.8599C31.138 32.905 29.3419 33.0424 28.0412 32.1347L16.2503 22.3398V38.2698C16.2503 38.533 16.7574 39.0807 17.0516 39.1155L42.8883 39.1329C43.2038 39.1097 43.7438 38.5543 43.7438 38.2698V22.3398Z" fill="#F2B032"/>
<path d="M30 1.93536C37.4961 1.93536 44.5432 4.85388 49.8445 10.1548C55.1458 15.4558 58.0645 22.5024 58.0645 29.9981C58.0645 37.4937 55.1458 44.5404 49.8445 49.8413C44.5432 55.1422 37.4961 58.0608 30 58.0608C22.5039 58.0608 15.4568 55.1422 10.1555 49.8413C4.85419 44.5404 1.93548 37.4937 1.93548 29.9981C1.93548 22.5024 4.85419 15.4558 10.1555 10.1548C15.4568 4.85388 22.5039 1.93536 30 1.93536ZM30 0C13.4323 0 0 13.4314 0 29.9981C0 46.5647 13.4323 59.9961 30 59.9961C46.5677 59.9961 60 46.5647 60 29.9981C60 13.4314 46.5677 0 30 0Z" fill="#F2B032"/>
</g>
<defs>
<clipPath id="clip0_1_62">
<rect width="60" height="60" fill="white"/>
</clipPath>
</defs>
</svg>
