<svg width="60" height="60" viewBox="0 0 60 60" fill="none" xmlns="http://www.w3.org/2000/svg">
<g clip-path="url(#clip0_1_46)">
<path d="M30 58.7594C45.8844 58.7594 58.7613 45.8834 58.7613 30C58.7613 14.1166 45.8844 1.24054 30 1.24054C14.1156 1.24054 1.23871 14.1166 1.23871 30C1.23871 45.8834 14.1156 58.7594 30 58.7594Z" fill="white" fill-opacity="0.1"/>
<path d="M30 1.93536C37.4961 1.93536 44.5432 4.85388 49.8445 10.1548C55.1458 15.4558 58.0645 22.5024 58.0645 29.9981C58.0645 37.4937 55.1458 44.5404 49.8445 49.8413C44.5432 55.1422 37.4961 58.0608 30 58.0608C22.5039 58.0608 15.4568 55.1422 10.1555 49.8413C4.85419 44.5404 1.93548 37.4937 1.93548 29.9981C1.93548 22.5024 4.85419 15.4558 10.1555 10.1548C15.4568 4.85388 22.5039 1.93536 30 1.93536ZM30 0C13.4323 0 0 13.4314 0 29.9981C0 46.5647 13.4323 59.9961 30 59.9961C46.5677 59.9961 60 46.5647 60 29.9981C60 13.4314 46.5677 0 30 0Z" fill="#F2B032"/>
<path d="M34.3839 20.1452V24.4978H38.9478C39.2749 24.4978 39.7394 25.1074 39.662 25.4558C39.2207 27.3911 39.2381 29.6284 38.7852 31.5328C38.7271 31.7805 38.4949 32.365 38.1949 32.365H34.3858V47.0583C34.3858 47.2963 33.8749 47.724 33.5923 47.6872C31.0587 47.5073 28.2136 47.9195 25.7168 47.6872C25.502 47.6679 25.3142 47.6485 25.1323 47.5189C25.0103 47.4318 24.7568 47.0041 24.7568 46.8899V33.2862H21.2826C20.7562 33.2862 20.4445 32.7947 20.4 32.3282C20.1871 30.1374 20.5665 27.604 20.4039 25.3745C20.3574 25.0513 20.8162 24.4958 21.1162 24.4958H25.68V18.5098C25.68 17.664 26.4271 15.8564 26.9013 15.1268C29.4697 11.1709 34.0974 12.4966 38.1078 12.2779C38.5355 12.3824 38.7058 12.6534 38.7445 13.0637C38.9303 15.0842 38.5955 17.3834 38.7445 19.4349C38.7813 19.6845 38.2916 20.1432 38.1136 20.1432H34.3878L34.3839 20.1452ZM37.0626 14.0333H31.7458C31.1594 14.0333 29.942 14.5655 29.4503 14.9197C26.2491 17.2344 27.8729 22.065 27.4258 25.3706C27.3833 25.688 27.06 26.257 26.7213 26.257H22.1574V31.5309H25.9665C26.0729 31.5309 26.5103 31.9683 26.5103 32.0747V45.9299H32.6226V31.4051C32.6226 31.0625 33.0813 30.6677 33.4239 30.6154C33.9639 30.5322 36.9949 30.7219 37.1362 30.6L37.7303 26.2551H33.3349C32.9962 26.2551 32.6729 25.6861 32.6303 25.3687C32.4813 24.2694 32.5103 21.2406 32.6245 20.1026C32.6807 19.5375 32.9071 19.011 33.3833 18.684C33.4703 18.624 33.9503 18.3859 34.0065 18.3859H37.0626V14.0333Z" fill="#F2B032"/>
</g>
<defs>
<clipPath id="clip0_1_46">
<rect width="60" height="60" fill="white"/>
</clipPath>
</defs>
</svg>
