<svg width="60" height="60" viewBox="0 0 60 60" fill="none" xmlns="http://www.w3.org/2000/svg">
<g clip-path="url(#clip0_1_52)">
<path d="M30 58.7594C45.8844 58.7594 58.7613 45.8834 58.7613 30C58.7613 14.1166 45.8844 1.24054 30 1.24054C14.1156 1.24054 1.23871 14.1166 1.23871 30C1.23871 45.8834 14.1156 58.7594 30 58.7594Z" fill="white" fill-opacity="0.1"/>
<path d="M30 1.93536C37.4961 1.93536 44.5432 4.85388 49.8445 10.1548C55.1458 15.4558 58.0645 22.5024 58.0645 29.9981C58.0645 37.4937 55.1458 44.5404 49.8445 49.8413C44.5432 55.1422 37.4961 58.0608 30 58.0608C22.5039 58.0608 15.4568 55.1422 10.1555 49.8413C4.85419 44.5404 1.93548 37.4937 1.93548 29.9981C1.93548 22.5024 4.85419 15.4558 10.1555 10.1548C15.4568 4.85388 22.5039 1.93536 30 1.93536ZM30 0C13.4323 0 0 13.4314 0 29.9981C0 46.5647 13.4323 59.9961 30 59.9961C46.5677 59.9961 60 46.5647 60 29.9981C60 13.4314 46.5677 0 30 0Z" fill="#F2B032"/>
<path d="M18.5535 14.1765C25.9587 14.4823 33.8458 13.6655 41.1987 14.1416C44.0709 14.3274 45.7006 15.957 45.8884 18.8291C45.5535 26.1389 46.32 33.8223 45.8884 41.0876C45.7142 44.0158 44.1561 45.6861 41.1987 45.8777C33.8864 45.5428 26.1987 46.3092 18.931 45.8777C16.0006 45.7035 14.3322 44.1455 14.1406 41.1902C14.5451 33.8668 13.6161 25.9899 14.1464 18.7304C14.338 16.1157 15.8903 14.3526 18.5555 14.1765H18.5535ZM18.658 15.928C17.0071 15.9686 15.9271 17.2169 15.898 18.8349C16.2735 26.1002 15.3929 33.8804 15.8922 41.0876C16.0297 43.0733 16.9432 43.9887 18.9329 44.1262C26.1716 43.741 33.9174 44.6235 41.0961 44.1262C43.0819 43.9887 43.9974 43.0753 44.1368 41.0876C43.7516 33.8513 44.6342 26.1099 44.1368 18.9317C43.9993 16.946 43.0858 16.0306 41.0961 15.8931C33.838 15.3899 25.9761 16.2531 18.658 15.928Z" fill="#F2B032"/>
<path d="M28.9626 21.2831C35.3768 20.6541 40.2677 26.4544 38.3884 32.6611C36.151 40.0464 25.831 40.9521 22.2329 34.13C19.4032 28.7633 22.8852 21.8792 28.9645 21.2831H28.9626ZM29.0632 23.0327C20.3071 24.0216 21.3542 37.9581 30.8768 37.0001C39.7297 36.1099 38.7077 21.943 29.0632 23.0327Z" fill="#F2B032"/>
<path d="M39.0542 17.7743C43.0897 17.0931 43.3432 22.9108 39.7413 22.9921C36.4529 23.0656 36.24 18.2504 39.0542 17.7743ZM39.3619 19.5239C38.4851 19.7832 38.7445 21.3857 39.809 21.2115C40.9916 21.018 40.6432 19.1465 39.3619 19.5239Z" fill="#F2B032"/>
</g>
<defs>
<clipPath id="clip0_1_52">
<rect width="60" height="60" fill="white"/>
</clipPath>
</defs>
</svg>
