<svg width="60" height="60" viewBox="0 0 60 60" fill="none" xmlns="http://www.w3.org/2000/svg">
<g clip-path="url(#clip0_1_36)">
<path d="M30 58.7594C45.8844 58.7594 58.7613 45.8834 58.7613 30C58.7613 14.1166 45.8844 1.24054 30 1.24054C14.1156 1.24054 1.23871 14.1166 1.23871 30C1.23871 45.8834 14.1156 58.7594 30 58.7594Z" fill="white" fill-opacity="0.1"/>
<path d="M13.4671 18.6685C13.44 18.4072 13.442 17.9001 13.4671 17.6369C13.7749 14.5152 17.4252 12.7095 20.1 14.3197C24.1355 16.7466 22.082 22.8914 17.4968 22.5411C15.542 22.3921 13.6781 20.6348 13.4671 18.6704V18.6685ZM17.8394 14.8113C16.3142 14.8364 14.9458 15.9222 14.6458 17.4279C13.9742 20.8012 18.1161 22.8256 20.3613 20.3116C22.231 18.2195 20.6671 14.7648 17.8394 14.8113Z" fill="#F2B032"/>
<path d="M32.0923 25.4442C32.2045 25.4732 32.2219 25.3977 32.2858 25.3474C33.6329 24.3139 34.1245 23.6636 35.9477 23.2708C41.1503 22.1463 46.1555 24.9119 46.4671 30.5071C46.7342 35.299 46.26 40.3406 46.4632 45.1577C46.3607 45.8022 45.9136 46.1699 45.2729 46.2241C43.5658 46.3712 41.6516 46.1099 39.9213 46.2202C39.3736 46.1815 38.8413 45.7906 38.789 45.2235C38.6555 41.3664 38.9768 37.3795 38.7948 33.5378C38.7232 32.007 38.4697 30.9115 36.9213 30.3155C34.7652 29.4852 32.8123 30.9232 32.6652 33.1508C32.4097 37.0505 32.8607 41.2289 32.671 45.1597C32.6439 45.7925 32.1329 46.1622 31.5407 46.2202C29.6516 46.4099 27.4665 46.077 25.5445 46.2241C25.0761 46.1777 24.6232 45.9725 24.4626 45.5003V24.3565C24.6019 23.9578 24.96 23.7217 25.3587 23.6404C27.1781 23.7585 29.2355 23.4643 31.0277 23.6327C31.4148 23.6694 32.0884 24.0952 32.0884 24.5055V25.4403L32.0923 25.4442ZM25.5832 45.1248H31.5445L31.6413 45.0281V32.6379C31.6413 30.9038 33.6871 29.1426 35.3477 28.9936C38.1136 28.7439 39.7471 30.5961 39.8903 33.2204C40.0994 37.0466 39.7394 41.0567 39.8884 44.9023L39.989 45.1248H45.2729L45.3736 44.9023L45.3697 30.509C44.9652 24.4474 38.0207 22.3302 33.5419 25.6996L31.0626 28.2175V24.7339H25.5852V45.1248H25.5832Z" fill="#F2B032"/>
<path d="M15.3194 23.652C16.8078 23.4159 18.8362 23.7836 20.3807 23.652C21.0697 23.8339 21.5555 24.341 21.7026 25.0396L21.7181 44.7048C21.6562 45.3706 21.1432 45.9512 20.5084 46.1389C19.8736 46.3267 16.3607 46.2957 15.5826 46.2028C14.851 46.1157 14.2762 45.6512 14.0787 44.9332L14.0516 25.0222C14.0807 24.3894 14.7116 23.7468 15.3232 23.6501L15.3194 23.652ZM15.511 24.7474C15.2671 24.8171 15.1278 25.0261 15.1394 25.2796L15.1568 44.6913C15.2516 44.9816 15.4665 45.0919 15.7549 45.1248C16.5523 45.2158 19.3065 45.2351 20.0574 45.1093C20.3381 45.0629 20.6149 44.8945 20.6226 44.5771L20.6052 25.2332C20.5626 24.9893 20.3865 24.7784 20.1329 24.7377L15.511 24.7474Z" fill="#F2B032"/>
<path d="M30 1.93536C37.4961 1.93536 44.5432 4.85388 49.8445 10.1548C55.1458 15.4558 58.0645 22.5024 58.0645 29.9981C58.0645 37.4937 55.1458 44.5404 49.8445 49.8413C44.5432 55.1422 37.4961 58.0608 30 58.0608C22.5039 58.0608 15.4568 55.1422 10.1555 49.8413C4.85419 44.5404 1.93548 37.4937 1.93548 29.9981C1.93548 22.5024 4.85419 15.4558 10.1555 10.1548C15.4568 4.85388 22.5039 1.93536 30 1.93536ZM30 0C13.4323 0 0 13.4314 0 29.9981C0 46.5647 13.4323 59.9961 30 59.9961C46.5677 59.9961 60 46.5647 60 29.9981C60 13.4314 46.5677 0 30 0Z" fill="#F2B032"/>
</g>
<defs>
<clipPath id="clip0_1_36">
<rect width="60" height="60" fill="white"/>
</clipPath>
</defs>
</svg>
