<svg width="1022" height="176" viewBox="0 0 1022 176" fill="none" xmlns="http://www.w3.org/2000/svg">
<g clip-path="url(#clip0_1_15)">
<path d="M330.96 51.9628H308.823V135.279C308.823 138.95 307.451 142.117 304.714 144.78C301.976 147.443 298.641 148.778 294.715 148.778C290.788 148.778 287.661 147.443 284.984 144.78C282.308 142.117 280.966 138.95 280.966 135.279V51.9628H258.292C254.604 51.9628 251.421 50.6038 248.745 47.8737C246.068 45.1497 244.727 41.8978 244.727 38.1C244.727 34.3021 246.068 31.0867 248.745 28.4233C251.421 25.7599 254.604 24.4252 258.292 24.4252H330.948C334.875 24.4252 338.149 25.7599 340.764 28.4233C343.38 31.0867 344.691 34.3142 344.691 38.1C344.691 41.8857 343.355 45.1497 340.673 47.8737C337.996 50.5977 334.753 51.9628 330.948 51.9628H330.96Z" fill="white"/>
<path d="M354.427 135.097V38.106C354.427 34.3203 355.769 31.0927 358.445 28.4294C361.122 25.766 364.304 24.4313 367.999 24.4313H410.128C421.553 24.4313 431.308 28.4597 439.405 36.5104C447.495 44.5673 451.544 54.2743 451.544 65.6436C451.544 72.6326 449.934 79.1181 446.721 85.094C443.508 91.0759 439.1 96.0204 433.509 99.9275L449.934 128.175C451.836 131.493 452.281 134.952 451.275 138.561C450.263 142.177 448.148 145.047 444.935 147.176C442.911 148.244 440.588 148.778 437.972 148.778C435.357 148.778 433.119 148.189 430.918 147C428.717 145.817 427.016 144.1 425.833 141.85L405.659 107.208H382.095V135.097C382.095 138.889 380.723 142.117 377.985 144.774C375.248 147.437 371.913 148.772 367.987 148.772C364.292 148.772 361.115 147.413 358.433 144.683C355.756 141.959 354.415 138.762 354.415 135.091L354.427 135.097ZM410.122 51.7868H382.095V79.6763H410.122C413.81 79.6763 417.054 78.2869 419.852 75.5022C422.645 72.7236 424.047 69.4657 424.047 65.7285C424.047 61.9913 422.645 58.7455 419.852 55.9608C417.054 53.1761 413.81 51.7808 410.122 51.7808V51.7868Z" fill="white"/>
<path d="M471.273 24.4252H507.153C517.633 24.4252 526.614 28.1321 534.113 35.5276C541.606 42.9292 545.362 51.9021 545.362 62.4403C545.362 69.4293 543.338 76.297 539.283 83.0434C543.094 86.4772 546.069 90.627 548.215 95.4805C550.349 100.334 551.428 105.424 551.428 110.757C551.428 121.18 547.679 130.116 540.179 137.578C532.686 145.041 523.7 148.772 513.231 148.772H471.273C467.584 148.772 464.371 147.437 461.634 144.774C458.896 142.11 457.531 138.944 457.531 135.273C457.531 131.366 458.896 128.023 461.634 125.238C464.371 122.46 467.584 121.064 471.273 121.064H513.231C516.085 121.064 518.523 120.057 520.542 118.043C522.566 116.035 523.578 113.602 523.578 110.763C523.578 107.924 522.566 105.497 520.542 103.477C518.523 101.462 516.085 100.455 513.231 100.455H481.095C477.285 100.455 474.047 99.1266 471.364 96.4633C468.688 93.7999 467.347 90.627 467.347 86.9565C467.347 83.0494 468.688 79.7369 471.364 77.0129C474.041 74.2889 477.285 72.9238 481.095 72.9238H507.153C510.018 72.9238 512.482 71.8864 514.567 69.8115C516.646 67.7427 517.688 65.2796 517.688 62.4403C517.688 59.601 516.646 56.9922 514.567 54.978C512.488 52.9699 510.018 51.9567 507.153 51.9567H471.273C467.584 51.9567 464.371 50.5977 461.634 47.8676C458.896 45.1436 457.531 41.8918 457.531 38.0939C457.531 34.296 458.896 31.0806 461.634 28.4172C464.371 25.7539 467.584 24.4192 471.273 24.4192V24.4252Z" fill="#77BF56"/>
<path d="M558.08 129.594L599.672 32.7793C602.05 27.216 606.751 24.4313 613.774 24.4313C616.865 24.4313 619.633 25.1169 622.078 26.4758C624.511 27.8409 626.273 29.9461 627.346 32.7854L669.115 129.601C670.658 133.156 670.749 136.681 669.384 140.169C668.012 143.664 665.543 146.121 661.97 147.546C660.543 148.378 658.696 148.79 656.434 148.79C653.696 148.79 651.197 148.05 648.941 146.57C646.679 145.089 644.947 143.045 643.765 140.442L638.229 127.301H589.137L583.424 140.442C582.351 143.051 580.656 145.089 578.34 146.57C576.017 148.056 573.547 148.79 570.932 148.79C568.548 148.79 566.646 148.378 565.219 147.546C561.646 146.121 559.147 143.664 557.72 140.169C556.293 136.681 556.409 133.156 558.08 129.601V129.594ZM625.913 99.5695L613.774 70.6184L600.922 99.5695H625.913Z" fill="white"/>
<path d="M666.512 86.9565C666.512 75.4719 669.28 64.9338 674.81 55.342C680.346 45.7503 687.9 38.2031 697.484 32.6944C707.062 27.1857 717.506 24.4313 728.809 24.4313C737.382 24.4313 745.472 26.033 753.087 29.2302C760.702 32.4274 767.427 36.8684 773.261 42.5531C775.877 45.2771 777.188 48.5653 777.188 52.4117C777.188 56.2581 775.877 59.4918 773.261 62.0884C770.524 64.6971 767.25 65.9955 763.439 65.9955C759.629 65.9955 756.416 64.6971 753.447 62.0884C746.899 55.342 738.686 51.9628 728.809 51.9628C718.933 51.9628 711.165 55.3663 704.44 62.1794C697.716 68.9925 694.356 77.2495 694.356 86.9565C694.356 96.6635 697.716 104.338 704.44 111.03C711.159 117.722 719.286 121.064 728.809 121.064C738.333 121.064 746.545 117.631 754.16 110.763V100.455H728.809C725.005 100.455 721.755 99.1266 719.085 96.4633C716.408 93.7999 715.067 90.627 715.067 86.9565C715.067 83.0494 716.408 79.7369 719.085 77.0129C721.761 74.2889 725.005 72.9238 728.809 72.9238H767.908C771.713 72.9238 774.956 74.2828 777.633 77.0129C780.309 79.7369 781.645 83.0494 781.645 86.9565V112.189C781.645 116.448 781.078 119.766 779.95 122.132C778.816 124.504 776.584 127.344 773.255 130.662C767.421 136.347 760.696 140.788 753.081 143.985C745.46 147.182 737.375 148.784 728.803 148.784C717.5 148.784 707.05 146.03 697.478 140.527C687.894 135.018 680.34 127.501 674.804 117.964C669.268 108.433 666.506 98.1013 666.506 86.9626L666.512 86.9565Z" fill="white"/>
<path d="M791.527 135.097V38.106C791.527 34.3203 792.869 31.0927 795.545 28.4294C798.222 25.766 801.404 24.4313 805.093 24.4313H847.222C858.647 24.4313 868.402 28.4597 876.499 36.5104C884.59 44.5673 888.632 54.2743 888.632 65.6436C888.632 72.6326 887.022 79.1181 883.809 85.094C880.596 91.0759 876.194 96.0204 870.603 99.9275L887.022 128.175C888.93 131.493 889.376 134.952 888.363 138.561C887.351 142.177 885.242 145.047 882.029 147.176C880.005 148.244 877.682 148.778 875.066 148.778C872.451 148.778 870.219 148.189 868.018 147C865.811 145.817 864.116 144.1 862.927 141.85L842.759 107.208H819.195V135.097C819.195 138.889 817.823 142.117 815.086 144.774C812.348 147.437 809.013 148.772 805.087 148.772C801.398 148.772 798.216 147.413 795.539 144.683C792.863 141.959 791.521 138.762 791.521 135.091L791.527 135.097ZM847.222 51.7868H819.195V79.6763H847.222C850.911 79.6763 854.154 78.2869 856.947 75.5022C859.739 72.7236 861.147 69.4657 861.147 65.7285C861.147 61.9913 859.745 58.7455 856.947 55.9608C854.154 53.1761 850.905 51.7808 847.222 51.7808V51.7868Z" fill="white"/>
<path d="M896.686 86.7806C896.686 75.4173 899.478 64.9338 905.075 55.342C910.666 45.7503 918.256 38.2031 927.834 32.6944C937.412 27.1857 947.801 24.4313 958.989 24.4313C970.177 24.4313 980.974 27.1857 990.674 32.6944C1000.37 38.2031 1008.02 45.7503 1013.61 55.342C1019.2 64.9338 1022 75.4173 1022 86.7806C1022 98.1438 1019.2 108.427 1013.61 117.958C1008.02 127.489 1000.37 135.012 990.674 140.521C980.974 146.03 970.415 148.778 958.989 148.778C947.564 148.778 937.418 146.024 927.834 140.521C918.256 135.012 910.666 127.495 905.075 117.958C899.484 108.427 896.686 98.0346 896.686 86.7806ZM993.979 86.7806C993.979 77.0736 990.589 68.8408 983.803 62.0884C977.024 55.342 968.75 51.9628 958.989 51.9628C949.228 51.9628 941.522 55.3663 934.803 62.1794C928.078 68.9925 924.719 77.1888 924.719 86.7806C924.719 96.3723 928.078 104.344 934.803 111.036C941.522 117.728 949.588 121.071 958.989 121.071C968.39 121.071 977.024 117.728 983.803 111.036C990.589 104.344 993.979 96.2631 993.979 86.7806Z" fill="white"/>
<path d="M214.871 76.7763C214.871 61.3604 213.09 57.0043 209.036 58.9882C198.336 62.4099 172.37 109.41 126.65 120.076C120.62 121.41 114.218 122.175 107.438 122.211C100.659 122.175 94.257 121.41 88.2273 120.076C42.501 109.41 16.5285 62.4099 5.83467 58.9882C1.78637 57.0043 0 61.3604 0 76.7763C0 76.8127 0 76.843 0 76.8733C0 76.9826 0 77.0857 0 77.1949C0 136.814 43.7143 175.988 103.634 175.988C104.908 175.988 106.17 175.945 107.438 175.909C108.707 175.945 109.969 175.988 111.243 175.988C171.156 175.988 214.877 136.814 214.877 77.1949C214.877 77.0796 214.877 76.9826 214.877 76.8733C214.877 76.8369 214.877 76.8066 214.877 76.7763H214.871Z" fill="#744A25"/>
<path d="M185.271 37.3113C185.289 37.0747 183.539 23.2604 178.844 24.5102C178.137 24.6376 177.357 24.9591 176.546 25.3838C166.663 29.9461 149.592 47.3701 130.753 58.1874C116.37 66.4444 98.5065 66.4444 84.1241 58.1874C65.2849 47.3701 48.2138 29.9461 38.3308 25.3838C37.5138 24.9591 36.7395 24.6376 36.0323 24.5102C31.3377 23.2543 29.5879 37.0747 29.6062 37.3113C29.6062 37.3901 29.5879 37.4569 29.5879 37.5357C26.9846 78.4689 58.2248 113.76 99.3601 116.35C102.055 116.52 112.834 116.52 115.529 116.35C156.664 113.76 187.904 78.475 185.301 37.5357C185.301 37.4508 185.289 37.3901 185.283 37.3113H185.271Z" fill="#77BF56"/>
<path d="M59.7794 11.1267C59.7794 -15.064 92.5926 14.063 107.432 14.063C122.272 14.063 155.085 -15.513 155.085 11.1267C155.085 37.7663 133.752 58.5453 107.432 58.5453C81.1123 58.5453 59.7794 37.3113 59.7794 11.1267Z" fill="#F2B032"/>
</g>
<defs>
<clipPath id="clip0_1_15">
<rect width="1022" height="176" fill="white"/>
</clipPath>
</defs>
</svg>
